<?xml version="1.0" encoding="UTF-8" standalone="no"?>
<!DOCTYPE svg PUBLIC "-//W3C//DTD SVG 1.1//EN"
 "http://www.w3.org/Graphics/SVG/1.1/DTD/svg11.dtd">
<!-- Generated by graphviz version 2.42.4 (0)
 -->
<!-- Pages: 1 -->
<svg width="1289pt" height="403pt"
 viewBox="0.00 0.00 1289.03 403.13" xmlns="http://www.w3.org/2000/svg" xmlns:xlink="http://www.w3.org/1999/xlink">
<g id="graph0" class="graph" transform="scale(1 1) rotate(0) translate(4 399.13)">
<polygon fill="white" stroke="transparent" points="-4,4 -4,-399.13 1285.03,-399.13 1285.03,4 -4,4"/>
<!-- Guest -->
<g id="node1" class="node">
<title>Guest</title>
<ellipse fill="lightyellow" stroke="black" cx="90.99" cy="-252.13" rx="38.19" ry="18"/>
<text text-anchor="middle" x="90.99" y="-248.43" font-family="Times,serif" font-size="14.00">Guest</text>
</g>
<!-- Auth -->
<g id="node6" class="node">
<title>Auth</title>
<ellipse fill="lightgreen" stroke="black" cx="475.27" cy="-323.13" rx="95.58" ry="18"/>
<text text-anchor="middle" x="475.27" y="-319.43" font-family="Times,serif" font-size="14.00">Authenticate User</text>
</g>
<!-- Guest&#45;&gt;Auth -->
<g id="edge1" class="edge">
<title>Guest&#45;&gt;Auth</title>
<path fill="none" stroke="black" d="M125.97,-259.7C147.21,-264.35 175.14,-270.31 199.98,-275.13 264.66,-287.67 338.2,-300.46 392.84,-309.68"/>
<polygon fill="black" stroke="black" points="392.37,-313.15 402.82,-311.36 393.54,-306.25 392.37,-313.15"/>
<text text-anchor="middle" x="269.48" y="-302.93" font-family="Times,serif" font-size="14.00">Login Info</text>
</g>
<!-- Search -->
<g id="node8" class="node">
<title>Search</title>
<ellipse fill="lightgreen" stroke="black" cx="475.27" cy="-193.13" rx="118.08" ry="18"/>
<text text-anchor="middle" x="475.27" y="-189.43" font-family="Times,serif" font-size="14.00">Handle Search Queries</text>
</g>
<!-- Guest&#45;&gt;Search -->
<g id="edge2" class="edge">
<title>Guest&#45;&gt;Search</title>
<path fill="none" stroke="black" d="M127.49,-246.5C148.56,-243.17 175.79,-238.89 199.98,-235.13 260.13,-225.79 327.73,-215.44 380.77,-207.35"/>
<polygon fill="black" stroke="black" points="381.48,-210.78 390.83,-205.81 380.42,-203.86 381.48,-210.78"/>
<text text-anchor="middle" x="269.48" y="-238.93" font-family="Times,serif" font-size="14.00">Search Queries</text>
</g>
<!-- Booking -->
<g id="node9" class="node">
<title>Booking</title>
<ellipse fill="lightgreen" stroke="black" cx="475.27" cy="-258.13" rx="87.18" ry="18"/>
<text text-anchor="middle" x="475.27" y="-254.43" font-family="Times,serif" font-size="14.00">Process Booking</text>
</g>
<!-- Guest&#45;&gt;Booking -->
<g id="edge3" class="edge">
<title>Guest&#45;&gt;Booking</title>
<path fill="none" stroke="black" d="M129.34,-252.72C186.46,-253.61 297.35,-255.35 378.02,-256.62"/>
<polygon fill="black" stroke="black" points="378.15,-260.12 388.2,-256.78 378.26,-253.12 378.15,-260.12"/>
<text text-anchor="middle" x="269.48" y="-259.93" font-family="Times,serif" font-size="14.00">Booking Request</text>
</g>
<!-- Review -->
<g id="node11" class="node">
<title>Review</title>
<ellipse fill="lightgreen" stroke="black" cx="475.27" cy="-43.13" rx="89.08" ry="18"/>
<text text-anchor="middle" x="475.27" y="-39.43" font-family="Times,serif" font-size="14.00">Manage Reviews</text>
</g>
<!-- Guest&#45;&gt;Review -->
<g id="edge4" class="edge">
<title>Guest&#45;&gt;Review</title>
<path fill="none" stroke="black" d="M104.89,-235.3C123.29,-212.67 159.37,-173.07 199.98,-154.13 256.49,-127.78 290.64,-174.52 338.98,-135.13 357.62,-119.95 339.96,-101.1 356.98,-84.13 368.5,-72.65 383.39,-64.38 398.69,-58.42"/>
<polygon fill="black" stroke="black" points="400,-61.67 408.23,-55 397.64,-55.08 400,-61.67"/>
<text text-anchor="middle" x="269.48" y="-157.93" font-family="Times,serif" font-size="14.00">Review Submission</text>
</g>
<!-- Host -->
<g id="node2" class="node">
<title>Host</title>
<ellipse fill="lightyellow" stroke="black" cx="90.99" cy="-119.13" rx="32.49" ry="18"/>
<text text-anchor="middle" x="90.99" y="-115.43" font-family="Times,serif" font-size="14.00">Host</text>
</g>
<!-- ManageListings -->
<g id="node7" class="node">
<title>ManageListings</title>
<ellipse fill="lightgreen" stroke="black" cx="475.27" cy="-111.13" rx="87.99" ry="18"/>
<text text-anchor="middle" x="475.27" y="-107.43" font-family="Times,serif" font-size="14.00">Manage Listings</text>
</g>
<!-- Host&#45;&gt;ManageListings -->
<g id="edge5" class="edge">
<title>Host&#45;&gt;ManageListings</title>
<path fill="none" stroke="black" d="M123.6,-118.47C178.69,-117.32 294.39,-114.9 377.85,-113.15"/>
<polygon fill="black" stroke="black" points="377.94,-116.65 387.86,-112.94 377.79,-109.65 377.94,-116.65"/>
<text text-anchor="middle" x="269.48" y="-120.93" font-family="Times,serif" font-size="14.00">Property Info</text>
</g>
<!-- Host&#45;&gt;Booking -->
<g id="edge6" class="edge">
<title>Host&#45;&gt;Booking</title>
<path fill="none" stroke="black" d="M113.5,-132.32C134.73,-144.73 168.48,-162.91 199.98,-173.13 259.54,-192.46 285.46,-163.63 338.98,-196.13 350.38,-203.05 346.13,-212.38 356.98,-220.13 370.47,-229.76 386.53,-237.05 402.37,-242.52"/>
<polygon fill="black" stroke="black" points="401.59,-245.95 412.18,-245.7 403.74,-239.29 401.59,-245.95"/>
<text text-anchor="middle" x="269.48" y="-199.93" font-family="Times,serif" font-size="14.00">Booking Details</text>
</g>
<!-- Host&#45;&gt;Review -->
<g id="edge7" class="edge">
<title>Host&#45;&gt;Review</title>
<path fill="none" stroke="black" d="M114.74,-106.61C133.51,-95.83 160.47,-79.35 181.98,-62.13 190.82,-55.06 189.54,-48.48 199.98,-44.13 264.58,-17.24 345.38,-20.89 402.5,-28.88"/>
<polygon fill="black" stroke="black" points="402.12,-32.36 412.53,-30.36 403.15,-25.43 402.12,-32.36"/>
<text text-anchor="middle" x="269.48" y="-47.93" font-family="Times,serif" font-size="14.00">Review Submission</text>
</g>
<!-- Admin -->
<g id="node3" class="node">
<title>Admin</title>
<ellipse fill="lightyellow" stroke="black" cx="90.99" cy="-35.13" rx="40.09" ry="18"/>
<text text-anchor="middle" x="90.99" y="-31.43" font-family="Times,serif" font-size="14.00">Admin</text>
</g>
<!-- Admin&#45;&gt;ManageListings -->
<g id="edge8" class="edge">
<title>Admin&#45;&gt;ManageListings</title>
<path fill="none" stroke="black" d="M127.44,-43.3C148.49,-48.08 175.72,-54.14 199.98,-59.13 267.02,-72.93 343.56,-87.33 398.72,-97.47"/>
<polygon fill="black" stroke="black" points="398.3,-100.95 408.76,-99.31 399.56,-94.06 398.3,-100.95"/>
<text text-anchor="middle" x="269.48" y="-89.93" font-family="Times,serif" font-size="14.00">Manage Listings</text>
</g>
<!-- Admin&#45;&gt;Review -->
<g id="edge9" class="edge">
<title>Admin&#45;&gt;Review</title>
<path fill="none" stroke="black" d="M123.68,-24.26C144.97,-17.55 173.81,-9.58 199.98,-6.13 261.23,1.95 277.76,2.09 338.98,-6.13 366.03,-9.76 395.32,-17.3 419.71,-24.64"/>
<polygon fill="black" stroke="black" points="418.9,-28.05 429.49,-27.65 420.96,-21.36 418.9,-28.05"/>
<text text-anchor="middle" x="269.48" y="-9.93" font-family="Times,serif" font-size="14.00">Moderate Reviews</text>
</g>
<!-- PaymentGateway -->
<g id="node4" class="node">
<title>PaymentGateway</title>
<ellipse fill="#000000" stroke="black" cx="1186.14" cy="-269.13" rx="94.78" ry="18"/>
<text text-anchor="middle" x="1186.14" y="-265.43" font-family="Times,serif" font-size="14.00">Payment Gateway</text>
</g>
<!-- EmailService -->
<g id="node5" class="node">
<title>EmailService</title>
<ellipse fill="#000000" stroke="black" cx="475.27" cy="-377.13" rx="75.29" ry="18"/>
<text text-anchor="middle" x="475.27" y="-373.43" font-family="Times,serif" font-size="14.00">Email Service</text>
</g>
<!-- UsersDB -->
<g id="node13" class="node">
<title>UsersDB</title>
<path fill="#000000" stroke="black" d="M906.4,-364.86C906.4,-366.66 887.36,-368.13 863.9,-368.13 840.45,-368.13 821.4,-366.66 821.4,-364.86 821.4,-364.86 821.4,-335.4 821.4,-335.4 821.4,-333.6 840.45,-332.13 863.9,-332.13 887.36,-332.13 906.4,-333.6 906.4,-335.4 906.4,-335.4 906.4,-364.86 906.4,-364.86"/>
<path fill="none" stroke="black" d="M906.4,-364.86C906.4,-363.05 887.36,-361.59 863.9,-361.59 840.45,-361.59 821.4,-363.05 821.4,-364.86"/>
<text text-anchor="middle" x="863.9" y="-346.43" font-family="Times,serif" font-size="14.00">Users DB</text>
</g>
<!-- Auth&#45;&gt;UsersDB -->
<g id="edge12" class="edge">
<title>Auth&#45;&gt;UsersDB</title>
<path fill="none" stroke="black" d="M565.46,-329.36C641.62,-334.68 748.5,-342.14 811.25,-346.52"/>
<polygon fill="black" stroke="black" points="811.09,-350.02 821.31,-347.23 811.57,-343.04 811.09,-350.02"/>
<text text-anchor="middle" x="683.56" y="-345.93" font-family="Times,serif" font-size="14.00">User Data</text>
</g>
<!-- PropertiesDB -->
<g id="node14" class="node">
<title>PropertiesDB</title>
<path fill="#000000" stroke="black" d="M922.9,-177.86C922.9,-179.66 896.46,-181.13 863.9,-181.13 831.35,-181.13 804.9,-179.66 804.9,-177.86 804.9,-177.86 804.9,-148.4 804.9,-148.4 804.9,-146.6 831.35,-145.13 863.9,-145.13 896.46,-145.13 922.9,-146.6 922.9,-148.4 922.9,-148.4 922.9,-177.86 922.9,-177.86"/>
<path fill="none" stroke="black" d="M922.9,-177.86C922.9,-176.05 896.46,-174.59 863.9,-174.59 831.35,-174.59 804.9,-176.05 804.9,-177.86"/>
<text text-anchor="middle" x="863.9" y="-159.43" font-family="Times,serif" font-size="14.00">Properties DB</text>
</g>
<!-- ManageListings&#45;&gt;PropertiesDB -->
<g id="edge13" class="edge">
<title>ManageListings&#45;&gt;PropertiesDB</title>
<path fill="none" stroke="black" d="M546.24,-100.47C603.4,-94.05 685.86,-90.04 755.56,-107.13 781.53,-113.5 808.19,-127.36 828.44,-139.7"/>
<polygon fill="black" stroke="black" points="826.66,-142.71 836.99,-145.05 830.37,-136.77 826.66,-142.71"/>
<text text-anchor="middle" x="683.56" y="-110.93" font-family="Times,serif" font-size="14.00">Listings Data</text>
</g>
<!-- ManageListings&#45;&gt;PropertiesDB -->
<g id="edge20" class="edge">
<title>ManageListings&#45;&gt;PropertiesDB</title>
<path fill="none" stroke="black" d="M549,-120.91C619.43,-130.38 725.41,-144.64 794.38,-153.92"/>
<polygon fill="black" stroke="black" points="794.33,-157.44 804.7,-155.3 795.26,-150.5 794.33,-157.44"/>
<text text-anchor="middle" x="683.56" y="-151.93" font-family="Times,serif" font-size="14.00">Add/Modify Listings</text>
</g>
<!-- Search&#45;&gt;PropertiesDB -->
<g id="edge18" class="edge">
<title>Search&#45;&gt;PropertiesDB</title>
<path fill="none" stroke="black" d="M580.9,-185.01C648.87,-179.74 735.51,-173.02 794.71,-168.42"/>
<polygon fill="black" stroke="black" points="795,-171.91 804.7,-167.65 794.46,-164.93 795,-171.91"/>
<text text-anchor="middle" x="683.56" y="-186.93" font-family="Times,serif" font-size="14.00">Query Listings</text>
</g>
<!-- Payment -->
<g id="node10" class="node">
<title>Payment</title>
<ellipse fill="lightgreen" stroke="black" cx="863.9" cy="-242.13" rx="90.18" ry="18"/>
<text text-anchor="middle" x="863.9" y="-238.43" font-family="Times,serif" font-size="14.00">Process Payment</text>
</g>
<!-- Booking&#45;&gt;Payment -->
<g id="edge17" class="edge">
<title>Booking&#45;&gt;Payment</title>
<path fill="none" stroke="black" d="M561.12,-254.62C621.24,-252.13 702.05,-248.79 764.91,-246.19"/>
<polygon fill="black" stroke="black" points="765.39,-249.67 775.24,-245.76 765.1,-242.68 765.39,-249.67"/>
<text text-anchor="middle" x="683.56" y="-256.93" font-family="Times,serif" font-size="14.00">Payment Info</text>
</g>
<!-- Booking&#45;&gt;PropertiesDB -->
<g id="edge19" class="edge">
<title>Booking&#45;&gt;PropertiesDB</title>
<path fill="none" stroke="black" d="M534.84,-244.97C558.63,-239.67 586.4,-233.54 611.56,-228.13 675.48,-214.39 692.39,-214.96 755.56,-198.13 771.64,-193.85 788.86,-188.56 804.69,-183.4"/>
<polygon fill="black" stroke="black" points="805.95,-186.67 814.35,-180.21 803.76,-180.02 805.95,-186.67"/>
<text text-anchor="middle" x="683.56" y="-231.93" font-family="Times,serif" font-size="14.00">Update Availability</text>
</g>
<!-- BookingsDB -->
<g id="node15" class="node">
<title>BookingsDB</title>
<path fill="#000000" stroke="black" d="M917.9,-310.86C917.9,-312.66 893.7,-314.13 863.9,-314.13 834.11,-314.13 809.9,-312.66 809.9,-310.86 809.9,-310.86 809.9,-281.4 809.9,-281.4 809.9,-279.6 834.11,-278.13 863.9,-278.13 893.7,-278.13 917.9,-279.6 917.9,-281.4 917.9,-281.4 917.9,-310.86 917.9,-310.86"/>
<path fill="none" stroke="black" d="M917.9,-310.86C917.9,-309.05 893.7,-307.59 863.9,-307.59 834.11,-307.59 809.9,-309.05 809.9,-310.86"/>
<text text-anchor="middle" x="863.9" y="-292.43" font-family="Times,serif" font-size="14.00">Bookings DB</text>
</g>
<!-- Booking&#45;&gt;BookingsDB -->
<g id="edge14" class="edge">
<title>Booking&#45;&gt;BookingsDB</title>
<path fill="none" stroke="black" d="M553.17,-266.2C572.25,-268.17 592.65,-270.25 611.56,-272.13 675.43,-278.48 748.45,-285.42 799.27,-290.2"/>
<polygon fill="black" stroke="black" points="799.17,-293.7 809.45,-291.15 799.82,-286.73 799.17,-293.7"/>
<text text-anchor="middle" x="683.56" y="-288.93" font-family="Times,serif" font-size="14.00">Booking Data</text>
</g>
<!-- Payment&#45;&gt;PaymentGateway -->
<g id="edge11" class="edge">
<title>Payment&#45;&gt;PaymentGateway</title>
<path fill="none" stroke="black" d="M947.37,-249.08C990.62,-252.73 1043.83,-257.22 1088.95,-261.02"/>
<polygon fill="black" stroke="black" points="1088.78,-264.52 1099.04,-261.87 1089.36,-257.54 1088.78,-264.52"/>
<text text-anchor="middle" x="1022.75" y="-263.93" font-family="Times,serif" font-size="14.00">Payment Info</text>
</g>
<!-- PaymentsDB -->
<g id="node16" class="node">
<title>PaymentsDB</title>
<path fill="#000000" stroke="black" d="M1242.64,-229.86C1242.64,-231.66 1217.31,-233.13 1186.14,-233.13 1154.96,-233.13 1129.64,-231.66 1129.64,-229.86 1129.64,-229.86 1129.64,-200.4 1129.64,-200.4 1129.64,-198.6 1154.96,-197.13 1186.14,-197.13 1217.31,-197.13 1242.64,-198.6 1242.64,-200.4 1242.64,-200.4 1242.64,-229.86 1242.64,-229.86"/>
<path fill="none" stroke="black" d="M1242.64,-229.86C1242.64,-228.05 1217.31,-226.59 1186.14,-226.59 1154.96,-226.59 1129.64,-228.05 1129.64,-229.86"/>
<text text-anchor="middle" x="1186.14" y="-211.43" font-family="Times,serif" font-size="14.00">Payments DB</text>
</g>
<!-- Payment&#45;&gt;PaymentsDB -->
<g id="edge15" class="edge">
<title>Payment&#45;&gt;PaymentsDB</title>
<path fill="none" stroke="black" d="M947.37,-235.18C1000.77,-230.68 1069.37,-224.89 1119.15,-220.69"/>
<polygon fill="black" stroke="black" points="1119.49,-224.18 1129.16,-219.85 1118.9,-217.2 1119.49,-224.18"/>
<text text-anchor="middle" x="1022.75" y="-236.93" font-family="Times,serif" font-size="14.00">Payment Data</text>
</g>
<!-- ReviewsDB -->
<g id="node17" class="node">
<title>ReviewsDB</title>
<path fill="#000000" stroke="black" d="M914.9,-57.86C914.9,-59.66 892.05,-61.13 863.9,-61.13 835.76,-61.13 812.9,-59.66 812.9,-57.86 812.9,-57.86 812.9,-28.4 812.9,-28.4 812.9,-26.6 835.76,-25.13 863.9,-25.13 892.05,-25.13 914.9,-26.6 914.9,-28.4 914.9,-28.4 914.9,-57.86 914.9,-57.86"/>
<path fill="none" stroke="black" d="M914.9,-57.86C914.9,-56.05 892.05,-54.59 863.9,-54.59 835.76,-54.59 812.9,-56.05 812.9,-57.86"/>
<text text-anchor="middle" x="863.9" y="-39.43" font-family="Times,serif" font-size="14.00">Reviews DB</text>
</g>
<!-- Review&#45;&gt;ReviewsDB -->
<g id="edge16" class="edge">
<title>Review&#45;&gt;ReviewsDB</title>
<path fill="none" stroke="black" d="M564.49,-43.13C637.22,-43.13 738.47,-43.13 802.33,-43.13"/>
<polygon fill="black" stroke="black" points="802.64,-46.63 812.64,-43.13 802.64,-39.63 802.64,-46.63"/>
<text text-anchor="middle" x="683.56" y="-46.93" font-family="Times,serif" font-size="14.00">Review Data</text>
</g>
<!-- Notification -->
<g id="node12" class="node">
<title>Notification</title>
<ellipse fill="lightgreen" stroke="black" cx="90.99" cy="-377.13" rx="90.98" ry="18"/>
<text text-anchor="middle" x="90.99" y="-373.43" font-family="Times,serif" font-size="14.00">Send Notification</text>
</g>
<!-- Notification&#45;&gt;EmailService -->
<g id="edge10" class="edge">
<title>Notification&#45;&gt;EmailService</title>
<path fill="none" stroke="black" d="M182.1,-377.13C244.94,-377.13 328.21,-377.13 389.78,-377.13"/>
<polygon fill="black" stroke="black" points="389.85,-380.63 399.85,-377.13 389.85,-373.63 389.85,-380.63"/>
<text text-anchor="middle" x="269.48" y="-380.93" font-family="Times,serif" font-size="14.00">Send Notifications</text>
</g>
</g>
</svg>
